%TF.GenerationSoftware,KiCad,Pcbnew,8.0.2-8.0.2-0~ubuntu22.04.1*%
%TF.CreationDate,2024-05-24T18:10:12-07:00*%
%TF.ProjectId,PartyLine80,50617274-794c-4696-9e65-38302e6b6963,B*%
%TF.SameCoordinates,Original*%
%TF.FileFunction,Soldermask,Top*%
%TF.FilePolarity,Negative*%
%FSLAX46Y46*%
G04 Gerber Fmt 4.6, Leading zero omitted, Abs format (unit mm)*
G04 Created by KiCad (PCBNEW 8.0.2-8.0.2-0~ubuntu22.04.1) date 2024-05-24 18:10:12*
%MOMM*%
%LPD*%
G01*
G04 APERTURE LIST*
G04 Aperture macros list*
%AMRoundRect*
0 Rectangle with rounded corners*
0 $1 Rounding radius*
0 $2 $3 $4 $5 $6 $7 $8 $9 X,Y pos of 4 corners*
0 Add a 4 corners polygon primitive as box body*
4,1,4,$2,$3,$4,$5,$6,$7,$8,$9,$2,$3,0*
0 Add four circle primitives for the rounded corners*
1,1,$1+$1,$2,$3*
1,1,$1+$1,$4,$5*
1,1,$1+$1,$6,$7*
1,1,$1+$1,$8,$9*
0 Add four rect primitives between the rounded corners*
20,1,$1+$1,$2,$3,$4,$5,0*
20,1,$1+$1,$4,$5,$6,$7,0*
20,1,$1+$1,$6,$7,$8,$9,0*
20,1,$1+$1,$8,$9,$2,$3,0*%
%AMHorizOval*
0 Thick line with rounded ends*
0 $1 width*
0 $2 $3 position (X,Y) of the first rounded end (center of the circle)*
0 $4 $5 position (X,Y) of the second rounded end (center of the circle)*
0 Add line between two ends*
20,1,$1,$2,$3,$4,$5,0*
0 Add two circle primitives to create the rounded ends*
1,1,$1,$2,$3*
1,1,$1,$4,$5*%
%AMRotRect*
0 Rectangle, with rotation*
0 The origin of the aperture is its center*
0 $1 length*
0 $2 width*
0 $3 Rotation angle, in degrees counterclockwise*
0 Add horizontal line*
21,1,$1,$2,0,0,$3*%
G04 Aperture macros list end*
%ADD10O,1.600000X1.600000*%
%ADD11R,1.600000X1.600000*%
%ADD12C,2.000000*%
%ADD13C,1.600000*%
%ADD14C,3.600000*%
%ADD15C,1.900000*%
%ADD16R,1.050000X1.500000*%
%ADD17O,1.050000X1.500000*%
%ADD18C,1.300480*%
%ADD19C,1.500000*%
%ADD20R,1.500000X1.050000*%
%ADD21O,1.500000X1.050000*%
%ADD22C,4.200000*%
%ADD23RotRect,1.600000X1.600000X135.000000*%
%ADD24HorizOval,1.600000X0.000000X0.000000X0.000000X0.000000X0*%
%ADD25C,1.400000*%
%ADD26RotRect,1.600000X1.600000X45.000000*%
%ADD27HorizOval,1.600000X0.000000X0.000000X0.000000X0.000000X0*%
%ADD28RoundRect,0.625000X1.875000X0.625000X-1.875000X0.625000X-1.875000X-0.625000X1.875000X-0.625000X0*%
%ADD29RoundRect,0.500000X1.750000X0.500000X-1.750000X0.500000X-1.750000X-0.500000X1.750000X-0.500000X0*%
%ADD30RoundRect,0.500000X0.500000X1.500000X-0.500000X1.500000X-0.500000X-1.500000X0.500000X-1.500000X0*%
%ADD31C,0.800000*%
%ADD32C,6.400000*%
%ADD33RotRect,1.600000X1.600000X225.000000*%
%ADD34HorizOval,1.600000X0.000000X0.000000X0.000000X0.000000X0*%
%ADD35RotRect,1.600000X1.600000X315.000000*%
%ADD36HorizOval,1.600000X0.000000X0.000000X0.000000X0.000000X0*%
%ADD37R,2.200000X2.200000*%
%ADD38O,2.200000X2.200000*%
%ADD39C,2.500000*%
%ADD40R,1.800000X1.800000*%
%ADD41C,1.800000*%
%ADD42C,2.600000*%
G04 APERTURE END LIST*
D10*
%TO.C,D15*%
X109700000Y-38080000D03*
D11*
X109700000Y-45700000D03*
%TD*%
D10*
%TO.C,D10*%
X105700000Y-38090000D03*
D11*
X105700000Y-45710000D03*
%TD*%
D12*
%TO.C,TP14*%
X113900000Y-38200000D03*
%TD*%
D13*
%TO.C,R62*%
X102500000Y-42145000D03*
D10*
X102500000Y-39605000D03*
%TD*%
D13*
%TO.C,L2*%
X142400000Y-76100000D03*
X144600000Y-71100000D03*
%TD*%
D11*
%TO.C,C28*%
X138200000Y-51100000D03*
D13*
X140700000Y-51100000D03*
%TD*%
%TO.C,C26*%
X80500000Y-125800000D03*
X80500000Y-120800000D03*
%TD*%
D14*
%TO.C,J3*%
X71200000Y-24800000D03*
X78800000Y-24800000D03*
D15*
X75000000Y-32600000D03*
%TD*%
D11*
%TO.C,C17*%
X95500000Y-100100000D03*
D13*
X93000000Y-100100000D03*
%TD*%
%TO.C,C34*%
X132200000Y-67745000D03*
X137200000Y-67745000D03*
%TD*%
%TO.C,R57*%
X55100000Y-119300000D03*
D10*
X52560000Y-119300000D03*
%TD*%
D12*
%TO.C,TP12*%
X112200000Y-30500000D03*
%TD*%
D13*
%TO.C,R45*%
X125255000Y-51200000D03*
D10*
X127795000Y-51200000D03*
%TD*%
D13*
%TO.C,C44*%
X74400000Y-66700000D03*
X69400000Y-66700000D03*
%TD*%
D16*
%TO.C,Q7*%
X67960000Y-93800000D03*
D17*
X69230000Y-93800000D03*
X70500000Y-93800000D03*
%TD*%
D18*
%TO.C,L5*%
X73199080Y-55300000D03*
X70400000Y-60300000D03*
%TD*%
D13*
%TO.C,R43*%
X81100000Y-64500000D03*
D10*
X81100000Y-61960000D03*
%TD*%
D13*
%TO.C,C8*%
X92700000Y-77850000D03*
X92700000Y-82850000D03*
%TD*%
D11*
%TO.C,C23*%
X57882380Y-86600000D03*
D13*
X55382380Y-86600000D03*
%TD*%
%TO.C,R50*%
X118800000Y-44055000D03*
D10*
X118800000Y-46595000D03*
%TD*%
D13*
%TO.C,R55*%
X139740000Y-82000000D03*
D10*
X137200000Y-82000000D03*
%TD*%
D13*
%TO.C,R41*%
X119760000Y-51200000D03*
D10*
X122300000Y-51200000D03*
%TD*%
D13*
%TO.C,R26*%
X69000000Y-86600000D03*
D10*
X71540000Y-86600000D03*
%TD*%
D11*
%TO.C,D7*%
X85500000Y-130400000D03*
D10*
X85500000Y-122780000D03*
%TD*%
D16*
%TO.C,Q1*%
X105460000Y-105100000D03*
D17*
X106730000Y-105100000D03*
X108000000Y-105100000D03*
%TD*%
D13*
%TO.C,R32*%
X72000000Y-119300000D03*
D10*
X72000000Y-121840000D03*
%TD*%
D19*
%TO.C,X1*%
X87550000Y-77900000D03*
X87550000Y-82780000D03*
%TD*%
D20*
%TO.C,Q6*%
X86000000Y-98240000D03*
D21*
X86000000Y-96970000D03*
X86000000Y-95700000D03*
%TD*%
D11*
%TO.C,C22*%
X76500000Y-88200000D03*
D13*
X79000000Y-88200000D03*
%TD*%
%TO.C,C42*%
X69400000Y-43600000D03*
X74400000Y-43600000D03*
%TD*%
%TO.C,R3*%
X128300000Y-109900000D03*
D10*
X125760000Y-109900000D03*
%TD*%
D13*
%TO.C,C32*%
X77800000Y-70300000D03*
X82800000Y-70300000D03*
%TD*%
%TO.C,R54*%
X135860000Y-77200000D03*
D10*
X138400000Y-77200000D03*
%TD*%
D12*
%TO.C,TP4*%
X101900000Y-115700000D03*
%TD*%
D11*
%TO.C,C4*%
X143100000Y-109900000D03*
D13*
X145600000Y-109900000D03*
%TD*%
%TO.C,C38*%
X124100000Y-66345000D03*
X124100000Y-71345000D03*
%TD*%
D16*
%TO.C,Q19*%
X94760000Y-51200000D03*
D17*
X96030000Y-51200000D03*
X97300000Y-51200000D03*
%TD*%
D13*
%TO.C,J2*%
X130800000Y-23000000D03*
X125790000Y-28000000D03*
X120800000Y-23000000D03*
D15*
X130800000Y-28000000D03*
X125800000Y-23000000D03*
X120800000Y-28000000D03*
%TD*%
D13*
%TO.C,C14*%
X109400000Y-136500000D03*
X109400000Y-131500000D03*
%TD*%
%TO.C,R31*%
X86755000Y-135900000D03*
D10*
X89295000Y-135900000D03*
%TD*%
D11*
%TO.C,C2*%
X106700000Y-96600000D03*
D13*
X109200000Y-96600000D03*
%TD*%
%TO.C,C16*%
X104700000Y-126700000D03*
X109700000Y-126700000D03*
%TD*%
D16*
%TO.C,Q17*%
X80260000Y-51200000D03*
D17*
X81530000Y-51200000D03*
X82800000Y-51200000D03*
%TD*%
D13*
%TO.C,R22*%
X89655000Y-108600000D03*
D10*
X92195000Y-108600000D03*
%TD*%
D13*
%TO.C,R28*%
X65000000Y-86600000D03*
D10*
X62460000Y-86600000D03*
%TD*%
D13*
%TO.C,R37*%
X88400000Y-70300000D03*
D10*
X85860000Y-70300000D03*
%TD*%
D13*
%TO.C,R56*%
X52900000Y-107400000D03*
D10*
X55440000Y-107400000D03*
%TD*%
D13*
%TO.C,R53*%
X135860000Y-72500000D03*
D10*
X138400000Y-72500000D03*
%TD*%
D12*
%TO.C,TP10*%
X59800000Y-107500000D03*
%TD*%
D13*
%TO.C,R27*%
X53410000Y-96800000D03*
D10*
X53410000Y-94260000D03*
%TD*%
D13*
%TO.C,R47*%
X102000000Y-50100000D03*
D10*
X104540000Y-50100000D03*
%TD*%
D22*
%TO.C,R18*%
X119800000Y-132200000D03*
X128000000Y-132200000D03*
D12*
X126400000Y-135500000D03*
X123900000Y-135500000D03*
X121400000Y-135500000D03*
%TD*%
D16*
%TO.C,Q20*%
X59200000Y-119300000D03*
D17*
X60470000Y-119300000D03*
X61740000Y-119300000D03*
%TD*%
D19*
%TO.C,X3*%
X108150000Y-77900000D03*
X108150000Y-82780000D03*
%TD*%
D13*
%TO.C,C35*%
X128800000Y-58285000D03*
X128800000Y-63285000D03*
%TD*%
D23*
%TO.C,D2*%
X131100000Y-106400000D03*
D24*
X125711846Y-101011846D03*
%TD*%
D13*
%TO.C,C37*%
X132500000Y-56145000D03*
X137500000Y-56145000D03*
%TD*%
%TO.C,R15*%
X115800000Y-126700000D03*
D10*
X113260000Y-126700000D03*
%TD*%
D12*
%TO.C,TP7*%
X98300000Y-43700000D03*
%TD*%
D13*
%TO.C,R49*%
X119500000Y-59705000D03*
D10*
X119500000Y-62245000D03*
%TD*%
D13*
%TO.C,R6*%
X125400000Y-114800000D03*
D10*
X127940000Y-114800000D03*
%TD*%
D13*
%TO.C,R17*%
X107845000Y-121900000D03*
D10*
X105305000Y-121900000D03*
%TD*%
D25*
%TO.C,T5*%
X110900000Y-60600000D03*
X108900000Y-63600000D03*
X110900000Y-62600000D03*
X108900000Y-65600000D03*
%TD*%
D12*
%TO.C,TP2*%
X65400000Y-67500000D03*
%TD*%
D13*
%TO.C,L9*%
X60620000Y-43916666D03*
X55620000Y-41716666D03*
%TD*%
D12*
%TO.C,TP8*%
X104400000Y-65200000D03*
%TD*%
D11*
%TO.C,D11*%
X54320000Y-75900000D03*
D10*
X61940000Y-75900000D03*
%TD*%
D13*
%TO.C,L4*%
X84800000Y-38600000D03*
X82600000Y-43600000D03*
%TD*%
%TO.C,R60*%
X67700000Y-119300000D03*
D10*
X65160000Y-119300000D03*
%TD*%
D13*
%TO.C,C40*%
X132200000Y-75700000D03*
X127200000Y-75700000D03*
%TD*%
%TO.C,R13*%
X126055000Y-126700000D03*
D10*
X128595000Y-126700000D03*
%TD*%
D16*
%TO.C,Q2*%
X135930000Y-115760000D03*
D17*
X137200000Y-115760000D03*
X138470000Y-115760000D03*
%TD*%
D12*
%TO.C,TP11*%
X63800000Y-32600000D03*
%TD*%
D13*
%TO.C,R1*%
X103900000Y-89500000D03*
D10*
X101360000Y-89500000D03*
%TD*%
D26*
%TO.C,D1*%
X125705924Y-97694077D03*
D27*
X131094078Y-92305923D03*
%TD*%
D13*
%TO.C,C29*%
X123200000Y-43100000D03*
X128200000Y-43100000D03*
%TD*%
%TO.C,C49*%
X64900000Y-108400000D03*
X69900000Y-108400000D03*
%TD*%
%TO.C,R35*%
X131960000Y-37800000D03*
D10*
X134500000Y-37800000D03*
%TD*%
D25*
%TO.C,T2*%
X132100000Y-79650000D03*
X129100000Y-79650000D03*
X134200000Y-89150000D03*
X127000000Y-89150000D03*
%TD*%
D13*
%TO.C,C47*%
X55620000Y-71200000D03*
X60620000Y-71200000D03*
%TD*%
%TO.C,L1*%
X116300000Y-96700000D03*
X114100000Y-101700000D03*
%TD*%
%TO.C,C11*%
X113700000Y-136500000D03*
X113700000Y-131500000D03*
%TD*%
%TO.C,C27*%
X71000000Y-124900000D03*
X76000000Y-124900000D03*
%TD*%
%TO.C,R58*%
X66445000Y-131100000D03*
D10*
X63905000Y-131100000D03*
%TD*%
D28*
%TO.C,J4*%
X100000000Y-33800000D03*
D29*
X100000000Y-27800000D03*
D30*
X95300000Y-30800000D03*
%TD*%
D13*
%TO.C,R25*%
X85000000Y-103300000D03*
D10*
X87540000Y-103300000D03*
%TD*%
D25*
%TO.C,T1*%
X79700000Y-79100000D03*
X79700000Y-76100000D03*
X70200000Y-81200000D03*
X70200000Y-74000000D03*
%TD*%
D11*
%TO.C,D6*%
X56990000Y-96800000D03*
D10*
X64610000Y-96800000D03*
%TD*%
D13*
%TO.C,R46*%
X124100000Y-61785000D03*
D10*
X124100000Y-59245000D03*
%TD*%
D13*
%TO.C,R61*%
X104400000Y-135200000D03*
D10*
X104400000Y-132660000D03*
%TD*%
D20*
%TO.C,Q5*%
X97200000Y-116800000D03*
D21*
X97200000Y-115530000D03*
X97200000Y-114260000D03*
%TD*%
D25*
%TO.C,T3*%
X122200000Y-95300000D03*
X120200000Y-99300000D03*
X122200000Y-97300000D03*
X120200000Y-101300000D03*
X122200000Y-99300000D03*
X120200000Y-103300000D03*
%TD*%
D11*
%TO.C,C24*%
X74600000Y-109400000D03*
D13*
X77100000Y-109400000D03*
%TD*%
%TO.C,R40*%
X131900000Y-49160000D03*
D10*
X131900000Y-51700000D03*
%TD*%
D13*
%TO.C,C5*%
X138000000Y-136600000D03*
X138000000Y-131600000D03*
%TD*%
%TO.C,R8*%
X145500000Y-116600000D03*
D10*
X142960000Y-116600000D03*
%TD*%
D16*
%TO.C,Q11*%
X78570000Y-115700000D03*
D17*
X77300000Y-115700000D03*
X76030000Y-115700000D03*
%TD*%
D13*
%TO.C,R11*%
X138000000Y-126900000D03*
D10*
X135460000Y-126900000D03*
%TD*%
D13*
%TO.C,C48*%
X64900000Y-113400000D03*
X69900000Y-113400000D03*
%TD*%
%TO.C,R39*%
X85700000Y-64500000D03*
D10*
X85700000Y-61960000D03*
%TD*%
D16*
%TO.C,Q8*%
X55660000Y-102400000D03*
D17*
X56930000Y-102400000D03*
X58200000Y-102400000D03*
%TD*%
D13*
%TO.C,C54*%
X55920000Y-38100000D03*
X60920000Y-38100000D03*
%TD*%
%TO.C,C46*%
X52900000Y-124900000D03*
X57900000Y-124900000D03*
%TD*%
D20*
%TO.C,Q4*%
X113060000Y-121870000D03*
D21*
X113060000Y-120600000D03*
X113060000Y-119330000D03*
%TD*%
D19*
%TO.C,X4*%
X118450000Y-82800000D03*
X118450000Y-77920000D03*
%TD*%
D13*
%TO.C,R4*%
X114400000Y-107700000D03*
D10*
X111860000Y-107700000D03*
%TD*%
D16*
%TO.C,Q12*%
X124260000Y-37800000D03*
D17*
X125530000Y-37800000D03*
X126800000Y-37800000D03*
%TD*%
D13*
%TO.C,C52*%
X55620000Y-56966664D03*
X60620000Y-56966664D03*
%TD*%
%TO.C,R51*%
X128200000Y-68800000D03*
D10*
X128200000Y-71340000D03*
%TD*%
D13*
%TO.C,C31*%
X104400000Y-60300000D03*
X99400000Y-60300000D03*
%TD*%
D16*
%TO.C,Q15*%
X133400000Y-62385000D03*
D17*
X134670000Y-62385000D03*
X135940000Y-62385000D03*
%TD*%
D13*
%TO.C,R12*%
X139100000Y-120900000D03*
D10*
X136560000Y-120900000D03*
%TD*%
D13*
%TO.C,C33*%
X115000000Y-49900000D03*
X115000000Y-54900000D03*
%TD*%
%TO.C,C20*%
X80800000Y-95500000D03*
X80800000Y-100500000D03*
%TD*%
D31*
%TO.C,H3*%
X52600000Y-135000000D03*
X53302944Y-133302944D03*
X53302944Y-136697056D03*
X55000000Y-132600000D03*
D32*
X55000000Y-135000000D03*
D31*
X55000000Y-137400000D03*
X56697056Y-133302944D03*
X56697056Y-136697056D03*
X57400000Y-135000000D03*
%TD*%
D12*
%TO.C,TP5*%
X136300000Y-25100000D03*
%TD*%
D13*
%TO.C,L8*%
X60620000Y-53349998D03*
X55620000Y-51149998D03*
%TD*%
D19*
%TO.C,X5*%
X143100000Y-63300000D03*
X143100000Y-58420000D03*
%TD*%
D13*
%TO.C,R44*%
X110400000Y-50100000D03*
D10*
X107860000Y-50100000D03*
%TD*%
D13*
%TO.C,R9*%
X131700000Y-115900000D03*
D10*
X131700000Y-113360000D03*
%TD*%
D13*
%TO.C,C50*%
X55620000Y-66400000D03*
X60620000Y-66400000D03*
%TD*%
D11*
%TO.C,C45*%
X55000000Y-113300000D03*
D13*
X53000000Y-113300000D03*
%TD*%
%TO.C,R5*%
X101300000Y-103900000D03*
D10*
X101300000Y-101360000D03*
%TD*%
D13*
%TO.C,R29*%
X61955000Y-102100000D03*
D10*
X64495000Y-102100000D03*
%TD*%
D11*
%TO.C,D8*%
X145500000Y-37900000D03*
D10*
X137880000Y-37900000D03*
%TD*%
D11*
%TO.C,C25*%
X89300000Y-129700000D03*
D13*
X91800000Y-129700000D03*
%TD*%
D11*
%TO.C,C9*%
X131000000Y-122200000D03*
D13*
X133500000Y-122200000D03*
%TD*%
D33*
%TO.C,D4*%
X139800000Y-101000000D03*
D34*
X134411846Y-106388154D03*
%TD*%
D31*
%TO.C,H1*%
X52600000Y-25000000D03*
X53302944Y-23302944D03*
X53302944Y-26697056D03*
X55000000Y-22600000D03*
D32*
X55000000Y-25000000D03*
D31*
X55000000Y-27400000D03*
X56697056Y-23302944D03*
X56697056Y-26697056D03*
X57400000Y-25000000D03*
%TD*%
D13*
%TO.C,L6*%
X65000000Y-80124990D03*
X67200000Y-75124990D03*
%TD*%
%TO.C,R33*%
X134000000Y-42600000D03*
D10*
X131460000Y-42600000D03*
%TD*%
D13*
%TO.C,R48*%
X102000000Y-54800000D03*
D10*
X104540000Y-54800000D03*
%TD*%
D35*
%TO.C,D3*%
X134400000Y-92300000D03*
D36*
X139788154Y-97688154D03*
%TD*%
D11*
%TO.C,D12*%
X61920000Y-80100000D03*
D10*
X54300000Y-80100000D03*
%TD*%
D16*
%TO.C,Q18*%
X87510000Y-51200000D03*
D17*
X88780000Y-51200000D03*
X90050000Y-51200000D03*
%TD*%
D12*
%TO.C,TP3*%
X144300000Y-121000000D03*
%TD*%
D13*
%TO.C,R38*%
X97800000Y-65200000D03*
D10*
X100340000Y-65200000D03*
%TD*%
D37*
%TO.C,D14*%
X90700000Y-33400000D03*
D38*
X90700000Y-23240000D03*
%TD*%
D11*
%TO.C,D5*%
X56890000Y-92600000D03*
D10*
X64510000Y-92600000D03*
%TD*%
D16*
%TO.C,Q13*%
X143200000Y-45100000D03*
D17*
X144470000Y-45100000D03*
X145740000Y-45100000D03*
%TD*%
D13*
%TO.C,R42*%
X108300000Y-54900000D03*
D10*
X110840000Y-54900000D03*
%TD*%
D25*
%TO.C,T4*%
X145100000Y-95300000D03*
X143100000Y-99300000D03*
X145100000Y-97300000D03*
X143100000Y-101300000D03*
X145100000Y-99300000D03*
X143100000Y-103300000D03*
%TD*%
D13*
%TO.C,C53*%
X55620000Y-47533332D03*
X60620000Y-47533332D03*
%TD*%
%TO.C,R52*%
X115000000Y-61845000D03*
D10*
X115000000Y-59305000D03*
%TD*%
D13*
%TO.C,R36*%
X94300000Y-70300000D03*
D10*
X91760000Y-70300000D03*
%TD*%
D31*
%TO.C,H2*%
X142600000Y-25000000D03*
X143302944Y-23302944D03*
X143302944Y-26697056D03*
X145000000Y-22600000D03*
D32*
X145000000Y-25000000D03*
D31*
X145000000Y-27400000D03*
X146697056Y-23302944D03*
X146697056Y-26697056D03*
X147400000Y-25000000D03*
%TD*%
D13*
%TO.C,C12*%
X113300000Y-77850000D03*
X113300000Y-82850000D03*
%TD*%
D39*
%TO.C,C30*%
X145100000Y-81600000D03*
X145100000Y-86600000D03*
%TD*%
D11*
%TO.C,C18*%
X105500000Y-114300000D03*
D13*
X108000000Y-114300000D03*
%TD*%
%TO.C,R10*%
X144300000Y-126900000D03*
D10*
X141760000Y-126900000D03*
%TD*%
D40*
%TO.C,D13*%
X96625000Y-129825000D03*
D41*
X99165000Y-129825000D03*
%TD*%
D42*
%TO.C,TP13*%
X142560000Y-91100000D03*
X147640000Y-91100000D03*
%TD*%
D13*
%TO.C,C1*%
X107600000Y-89500000D03*
X112600000Y-89500000D03*
%TD*%
%TO.C,C6*%
X82400000Y-82850000D03*
X82400000Y-77850000D03*
%TD*%
D19*
%TO.C,X2*%
X97850000Y-82800000D03*
X97850000Y-77920000D03*
%TD*%
D13*
%TO.C,L7*%
X60620000Y-62783330D03*
X55620000Y-60583330D03*
%TD*%
%TO.C,C43*%
X69400000Y-48200000D03*
X74400000Y-48200000D03*
%TD*%
D20*
%TO.C,Q3*%
X125600000Y-121940000D03*
D21*
X125600000Y-120670000D03*
X125600000Y-119400000D03*
%TD*%
D13*
%TO.C,C15*%
X123600000Y-77850000D03*
X123600000Y-82850000D03*
%TD*%
%TO.C,R2*%
X101300000Y-96600000D03*
D10*
X101300000Y-94060000D03*
%TD*%
D11*
%TO.C,C21*%
X83400000Y-109500000D03*
D13*
X85900000Y-109500000D03*
%TD*%
%TO.C,R19*%
X96500000Y-107500000D03*
D10*
X96500000Y-110040000D03*
%TD*%
D13*
%TO.C,C39*%
X99400000Y-70300000D03*
X104400000Y-70300000D03*
%TD*%
%TO.C,R59*%
X59400000Y-113400000D03*
D10*
X61940000Y-113400000D03*
%TD*%
D13*
%TO.C,C51*%
X61800000Y-124900000D03*
X66800000Y-124900000D03*
%TD*%
D16*
%TO.C,Q10*%
X87570000Y-115700000D03*
D17*
X86300000Y-115700000D03*
X85030000Y-115700000D03*
%TD*%
D16*
%TO.C,Q9*%
X73700000Y-102400000D03*
D17*
X74970000Y-102400000D03*
X76240000Y-102400000D03*
%TD*%
D13*
%TO.C,L3*%
X90300000Y-43600000D03*
X92500000Y-38600000D03*
%TD*%
%TO.C,R20*%
X101400000Y-110000000D03*
D10*
X103940000Y-110000000D03*
%TD*%
D16*
%TO.C,Q16*%
X117900000Y-68045000D03*
D17*
X119170000Y-68045000D03*
X120440000Y-68045000D03*
%TD*%
D13*
%TO.C,R34*%
X138200000Y-44900000D03*
D10*
X138200000Y-42360000D03*
%TD*%
D13*
%TO.C,R14*%
X121800000Y-126700000D03*
D10*
X119260000Y-126700000D03*
%TD*%
D13*
%TO.C,R23*%
X93800000Y-122160000D03*
D10*
X93800000Y-124700000D03*
%TD*%
D11*
%TO.C,C13*%
X118100000Y-119900000D03*
D13*
X120600000Y-119900000D03*
%TD*%
%TO.C,R21*%
X92900000Y-92900000D03*
D10*
X95440000Y-92900000D03*
%TD*%
D13*
%TO.C,C36*%
X89400000Y-58600000D03*
X94400000Y-58600000D03*
%TD*%
%TO.C,R7*%
X136100000Y-109900000D03*
D10*
X138640000Y-109900000D03*
%TD*%
D13*
%TO.C,R16*%
X114000000Y-113800000D03*
D10*
X111460000Y-113800000D03*
%TD*%
D12*
%TO.C,TP1*%
X118900000Y-89500000D03*
%TD*%
D13*
%TO.C,C10*%
X103000000Y-82850000D03*
X103000000Y-77850000D03*
%TD*%
D12*
%TO.C,TP9*%
X137900000Y-87600000D03*
%TD*%
D13*
%TO.C,R30*%
X67700000Y-102100000D03*
D10*
X70240000Y-102100000D03*
%TD*%
D11*
%TO.C,C3*%
X118800000Y-109900000D03*
D13*
X121300000Y-109900000D03*
%TD*%
%TO.C,C41*%
X84800000Y-27600000D03*
X84800000Y-32600000D03*
%TD*%
%TO.C,J1*%
X70800000Y-137000000D03*
X75810000Y-132000000D03*
X80800000Y-137000000D03*
D15*
X70800000Y-132000000D03*
X75800000Y-137000000D03*
X80800000Y-132000000D03*
%TD*%
D13*
%TO.C,C7*%
X133800000Y-136600000D03*
X133800000Y-131600000D03*
%TD*%
%TO.C,R24*%
X74560000Y-95500000D03*
D10*
X77100000Y-95500000D03*
%TD*%
D12*
%TO.C,TP6*%
X113900000Y-44000000D03*
%TD*%
D11*
%TO.C,D9*%
X142100000Y-33300000D03*
D10*
X134480000Y-33300000D03*
%TD*%
D31*
%TO.C,H4*%
X142600000Y-135000000D03*
X143302944Y-133302944D03*
X143302944Y-136697056D03*
X145000000Y-132600000D03*
D32*
X145000000Y-135000000D03*
D31*
X145000000Y-137400000D03*
X146697056Y-133302944D03*
X146697056Y-136697056D03*
X147400000Y-135000000D03*
%TD*%
D11*
%TO.C,C19*%
X97900000Y-122900000D03*
D13*
X100400000Y-122900000D03*
%TD*%
D16*
%TO.C,Q14*%
X90500000Y-64500000D03*
D17*
X91770000Y-64500000D03*
X93040000Y-64500000D03*
%TD*%
M02*
