%TF.GenerationSoftware,KiCad,Pcbnew,7.0.10-7.0.10~ubuntu22.04.1*%
%TF.CreationDate,2024-01-03T17:51:55-08:00*%
%TF.ProjectId,PartyLine80,50617274-794c-4696-9e65-38302e6b6963,rev?*%
%TF.SameCoordinates,Original*%
%TF.FileFunction,Drillmap*%
%TF.FilePolarity,Positive*%
%FSLAX45Y45*%
G04 Gerber Fmt 4.5, Leading zero omitted, Abs format (unit mm)*
G04 Created by KiCad (PCBNEW 7.0.10-7.0.10~ubuntu22.04.1) date 2024-01-03 17:51:55*
%MOMM*%
%LPD*%
G01*
G04 APERTURE LIST*
%ADD10C,0.100000*%
%ADD11C,0.200000*%
%ADD12C,0.130000*%
G04 APERTURE END LIST*
D10*
X5300000Y-14000000D02*
X14700000Y-14000000D01*
X14700000Y-14000000D02*
G75*
G03*
X15000000Y-13700000I0J300000D01*
G01*
X15000000Y-2300000D02*
G75*
G03*
X14700000Y-2000000I-300000J0D01*
G01*
X5000000Y-13700000D02*
G75*
G03*
X5300000Y-14000000I300000J0D01*
G01*
X5300000Y-2000000D02*
G75*
G03*
X5000000Y-2300000I0J-300000D01*
G01*
X5300000Y-2000000D02*
X14700000Y-2000000D01*
X15000000Y-2300000D02*
X15000000Y-13700000D01*
X5000000Y-13700000D02*
X5000000Y-2300000D01*
D11*
D12*
X7015000Y-13635000D02*
X7145000Y-13765000D01*
X7145000Y-13635000D02*
X7015000Y-13765000D01*
X7516000Y-13135000D02*
X7646000Y-13265000D01*
X7646000Y-13135000D02*
X7516000Y-13265000D01*
X8015000Y-13635000D02*
X8145000Y-13765000D01*
X8145000Y-13635000D02*
X8015000Y-13765000D01*
X12015000Y-2235000D02*
X12145000Y-2365000D01*
X12145000Y-2235000D02*
X12015000Y-2365000D01*
X12514000Y-2735000D02*
X12644000Y-2865000D01*
X12644000Y-2735000D02*
X12514000Y-2865000D01*
X13015000Y-2235000D02*
X13145000Y-2365000D01*
X13145000Y-2235000D02*
X13015000Y-2365000D01*
D11*
X5255777Y-14316484D02*
X5255777Y-14116484D01*
X5255777Y-14116484D02*
X5303396Y-14116484D01*
X5303396Y-14116484D02*
X5331967Y-14126008D01*
X5331967Y-14126008D02*
X5351015Y-14145055D01*
X5351015Y-14145055D02*
X5360539Y-14164103D01*
X5360539Y-14164103D02*
X5370063Y-14202198D01*
X5370063Y-14202198D02*
X5370063Y-14230769D01*
X5370063Y-14230769D02*
X5360539Y-14268865D01*
X5360539Y-14268865D02*
X5351015Y-14287912D01*
X5351015Y-14287912D02*
X5331967Y-14306960D01*
X5331967Y-14306960D02*
X5303396Y-14316484D01*
X5303396Y-14316484D02*
X5255777Y-14316484D01*
X5455777Y-14316484D02*
X5455777Y-14183150D01*
X5455777Y-14221246D02*
X5465301Y-14202198D01*
X5465301Y-14202198D02*
X5474824Y-14192674D01*
X5474824Y-14192674D02*
X5493872Y-14183150D01*
X5493872Y-14183150D02*
X5512920Y-14183150D01*
X5579586Y-14316484D02*
X5579586Y-14183150D01*
X5579586Y-14116484D02*
X5570063Y-14126008D01*
X5570063Y-14126008D02*
X5579586Y-14135531D01*
X5579586Y-14135531D02*
X5589110Y-14126008D01*
X5589110Y-14126008D02*
X5579586Y-14116484D01*
X5579586Y-14116484D02*
X5579586Y-14135531D01*
X5703396Y-14316484D02*
X5684348Y-14306960D01*
X5684348Y-14306960D02*
X5674824Y-14287912D01*
X5674824Y-14287912D02*
X5674824Y-14116484D01*
X5808158Y-14316484D02*
X5789110Y-14306960D01*
X5789110Y-14306960D02*
X5779586Y-14287912D01*
X5779586Y-14287912D02*
X5779586Y-14116484D01*
X6036729Y-14316484D02*
X6036729Y-14116484D01*
X6036729Y-14116484D02*
X6103396Y-14259341D01*
X6103396Y-14259341D02*
X6170062Y-14116484D01*
X6170062Y-14116484D02*
X6170062Y-14316484D01*
X6351015Y-14316484D02*
X6351015Y-14211722D01*
X6351015Y-14211722D02*
X6341491Y-14192674D01*
X6341491Y-14192674D02*
X6322443Y-14183150D01*
X6322443Y-14183150D02*
X6284348Y-14183150D01*
X6284348Y-14183150D02*
X6265301Y-14192674D01*
X6351015Y-14306960D02*
X6331967Y-14316484D01*
X6331967Y-14316484D02*
X6284348Y-14316484D01*
X6284348Y-14316484D02*
X6265301Y-14306960D01*
X6265301Y-14306960D02*
X6255777Y-14287912D01*
X6255777Y-14287912D02*
X6255777Y-14268865D01*
X6255777Y-14268865D02*
X6265301Y-14249817D01*
X6265301Y-14249817D02*
X6284348Y-14240293D01*
X6284348Y-14240293D02*
X6331967Y-14240293D01*
X6331967Y-14240293D02*
X6351015Y-14230769D01*
X6446253Y-14183150D02*
X6446253Y-14383150D01*
X6446253Y-14192674D02*
X6465301Y-14183150D01*
X6465301Y-14183150D02*
X6503396Y-14183150D01*
X6503396Y-14183150D02*
X6522443Y-14192674D01*
X6522443Y-14192674D02*
X6531967Y-14202198D01*
X6531967Y-14202198D02*
X6541491Y-14221246D01*
X6541491Y-14221246D02*
X6541491Y-14278388D01*
X6541491Y-14278388D02*
X6531967Y-14297436D01*
X6531967Y-14297436D02*
X6522443Y-14306960D01*
X6522443Y-14306960D02*
X6503396Y-14316484D01*
X6503396Y-14316484D02*
X6465301Y-14316484D01*
X6465301Y-14316484D02*
X6446253Y-14306960D01*
X6627205Y-14297436D02*
X6636729Y-14306960D01*
X6636729Y-14306960D02*
X6627205Y-14316484D01*
X6627205Y-14316484D02*
X6617682Y-14306960D01*
X6617682Y-14306960D02*
X6627205Y-14297436D01*
X6627205Y-14297436D02*
X6627205Y-14316484D01*
X6627205Y-14192674D02*
X6636729Y-14202198D01*
X6636729Y-14202198D02*
X6627205Y-14211722D01*
X6627205Y-14211722D02*
X6617682Y-14202198D01*
X6617682Y-14202198D02*
X6627205Y-14192674D01*
X6627205Y-14192674D02*
X6627205Y-14211722D01*
D12*
X4865000Y-14580000D02*
X4995000Y-14710000D01*
X4995000Y-14580000D02*
X4865000Y-14710000D01*
D11*
X5360539Y-14736484D02*
X5246253Y-14736484D01*
X5303396Y-14736484D02*
X5303396Y-14536484D01*
X5303396Y-14536484D02*
X5284348Y-14565055D01*
X5284348Y-14565055D02*
X5265301Y-14584103D01*
X5265301Y-14584103D02*
X5246253Y-14593627D01*
X5446253Y-14717436D02*
X5455777Y-14726960D01*
X5455777Y-14726960D02*
X5446253Y-14736484D01*
X5446253Y-14736484D02*
X5436729Y-14726960D01*
X5436729Y-14726960D02*
X5446253Y-14717436D01*
X5446253Y-14717436D02*
X5446253Y-14736484D01*
X5522444Y-14536484D02*
X5646253Y-14536484D01*
X5646253Y-14536484D02*
X5579586Y-14612674D01*
X5579586Y-14612674D02*
X5608158Y-14612674D01*
X5608158Y-14612674D02*
X5627205Y-14622198D01*
X5627205Y-14622198D02*
X5636729Y-14631722D01*
X5636729Y-14631722D02*
X5646253Y-14650769D01*
X5646253Y-14650769D02*
X5646253Y-14698388D01*
X5646253Y-14698388D02*
X5636729Y-14717436D01*
X5636729Y-14717436D02*
X5627205Y-14726960D01*
X5627205Y-14726960D02*
X5608158Y-14736484D01*
X5608158Y-14736484D02*
X5551015Y-14736484D01*
X5551015Y-14736484D02*
X5531967Y-14726960D01*
X5531967Y-14726960D02*
X5522444Y-14717436D01*
X5770062Y-14536484D02*
X5789110Y-14536484D01*
X5789110Y-14536484D02*
X5808158Y-14546008D01*
X5808158Y-14546008D02*
X5817682Y-14555531D01*
X5817682Y-14555531D02*
X5827205Y-14574579D01*
X5827205Y-14574579D02*
X5836729Y-14612674D01*
X5836729Y-14612674D02*
X5836729Y-14660293D01*
X5836729Y-14660293D02*
X5827205Y-14698388D01*
X5827205Y-14698388D02*
X5817682Y-14717436D01*
X5817682Y-14717436D02*
X5808158Y-14726960D01*
X5808158Y-14726960D02*
X5789110Y-14736484D01*
X5789110Y-14736484D02*
X5770062Y-14736484D01*
X5770062Y-14736484D02*
X5751015Y-14726960D01*
X5751015Y-14726960D02*
X5741491Y-14717436D01*
X5741491Y-14717436D02*
X5731967Y-14698388D01*
X5731967Y-14698388D02*
X5722443Y-14660293D01*
X5722443Y-14660293D02*
X5722443Y-14612674D01*
X5722443Y-14612674D02*
X5731967Y-14574579D01*
X5731967Y-14574579D02*
X5741491Y-14555531D01*
X5741491Y-14555531D02*
X5751015Y-14546008D01*
X5751015Y-14546008D02*
X5770062Y-14536484D01*
X5960539Y-14536484D02*
X5979586Y-14536484D01*
X5979586Y-14536484D02*
X5998634Y-14546008D01*
X5998634Y-14546008D02*
X6008158Y-14555531D01*
X6008158Y-14555531D02*
X6017682Y-14574579D01*
X6017682Y-14574579D02*
X6027205Y-14612674D01*
X6027205Y-14612674D02*
X6027205Y-14660293D01*
X6027205Y-14660293D02*
X6017682Y-14698388D01*
X6017682Y-14698388D02*
X6008158Y-14717436D01*
X6008158Y-14717436D02*
X5998634Y-14726960D01*
X5998634Y-14726960D02*
X5979586Y-14736484D01*
X5979586Y-14736484D02*
X5960539Y-14736484D01*
X5960539Y-14736484D02*
X5941491Y-14726960D01*
X5941491Y-14726960D02*
X5931967Y-14717436D01*
X5931967Y-14717436D02*
X5922443Y-14698388D01*
X5922443Y-14698388D02*
X5912920Y-14660293D01*
X5912920Y-14660293D02*
X5912920Y-14612674D01*
X5912920Y-14612674D02*
X5922443Y-14574579D01*
X5922443Y-14574579D02*
X5931967Y-14555531D01*
X5931967Y-14555531D02*
X5941491Y-14546008D01*
X5941491Y-14546008D02*
X5960539Y-14536484D01*
X6112920Y-14736484D02*
X6112920Y-14603150D01*
X6112920Y-14622198D02*
X6122443Y-14612674D01*
X6122443Y-14612674D02*
X6141491Y-14603150D01*
X6141491Y-14603150D02*
X6170063Y-14603150D01*
X6170063Y-14603150D02*
X6189110Y-14612674D01*
X6189110Y-14612674D02*
X6198634Y-14631722D01*
X6198634Y-14631722D02*
X6198634Y-14736484D01*
X6198634Y-14631722D02*
X6208158Y-14612674D01*
X6208158Y-14612674D02*
X6227205Y-14603150D01*
X6227205Y-14603150D02*
X6255777Y-14603150D01*
X6255777Y-14603150D02*
X6274824Y-14612674D01*
X6274824Y-14612674D02*
X6284348Y-14631722D01*
X6284348Y-14631722D02*
X6284348Y-14736484D01*
X6379586Y-14736484D02*
X6379586Y-14603150D01*
X6379586Y-14622198D02*
X6389110Y-14612674D01*
X6389110Y-14612674D02*
X6408158Y-14603150D01*
X6408158Y-14603150D02*
X6436729Y-14603150D01*
X6436729Y-14603150D02*
X6455777Y-14612674D01*
X6455777Y-14612674D02*
X6465301Y-14631722D01*
X6465301Y-14631722D02*
X6465301Y-14736484D01*
X6465301Y-14631722D02*
X6474824Y-14612674D01*
X6474824Y-14612674D02*
X6493872Y-14603150D01*
X6493872Y-14603150D02*
X6522443Y-14603150D01*
X6522443Y-14603150D02*
X6541491Y-14612674D01*
X6541491Y-14612674D02*
X6551015Y-14631722D01*
X6551015Y-14631722D02*
X6551015Y-14736484D01*
X6941491Y-14526960D02*
X6770063Y-14784103D01*
X7198634Y-14536484D02*
X7217682Y-14536484D01*
X7217682Y-14536484D02*
X7236729Y-14546008D01*
X7236729Y-14546008D02*
X7246253Y-14555531D01*
X7246253Y-14555531D02*
X7255777Y-14574579D01*
X7255777Y-14574579D02*
X7265301Y-14612674D01*
X7265301Y-14612674D02*
X7265301Y-14660293D01*
X7265301Y-14660293D02*
X7255777Y-14698388D01*
X7255777Y-14698388D02*
X7246253Y-14717436D01*
X7246253Y-14717436D02*
X7236729Y-14726960D01*
X7236729Y-14726960D02*
X7217682Y-14736484D01*
X7217682Y-14736484D02*
X7198634Y-14736484D01*
X7198634Y-14736484D02*
X7179586Y-14726960D01*
X7179586Y-14726960D02*
X7170063Y-14717436D01*
X7170063Y-14717436D02*
X7160539Y-14698388D01*
X7160539Y-14698388D02*
X7151015Y-14660293D01*
X7151015Y-14660293D02*
X7151015Y-14612674D01*
X7151015Y-14612674D02*
X7160539Y-14574579D01*
X7160539Y-14574579D02*
X7170063Y-14555531D01*
X7170063Y-14555531D02*
X7179586Y-14546008D01*
X7179586Y-14546008D02*
X7198634Y-14536484D01*
X7351015Y-14717436D02*
X7360539Y-14726960D01*
X7360539Y-14726960D02*
X7351015Y-14736484D01*
X7351015Y-14736484D02*
X7341491Y-14726960D01*
X7341491Y-14726960D02*
X7351015Y-14717436D01*
X7351015Y-14717436D02*
X7351015Y-14736484D01*
X7484348Y-14536484D02*
X7503396Y-14536484D01*
X7503396Y-14536484D02*
X7522444Y-14546008D01*
X7522444Y-14546008D02*
X7531967Y-14555531D01*
X7531967Y-14555531D02*
X7541491Y-14574579D01*
X7541491Y-14574579D02*
X7551015Y-14612674D01*
X7551015Y-14612674D02*
X7551015Y-14660293D01*
X7551015Y-14660293D02*
X7541491Y-14698388D01*
X7541491Y-14698388D02*
X7531967Y-14717436D01*
X7531967Y-14717436D02*
X7522444Y-14726960D01*
X7522444Y-14726960D02*
X7503396Y-14736484D01*
X7503396Y-14736484D02*
X7484348Y-14736484D01*
X7484348Y-14736484D02*
X7465301Y-14726960D01*
X7465301Y-14726960D02*
X7455777Y-14717436D01*
X7455777Y-14717436D02*
X7446253Y-14698388D01*
X7446253Y-14698388D02*
X7436729Y-14660293D01*
X7436729Y-14660293D02*
X7436729Y-14612674D01*
X7436729Y-14612674D02*
X7446253Y-14574579D01*
X7446253Y-14574579D02*
X7455777Y-14555531D01*
X7455777Y-14555531D02*
X7465301Y-14546008D01*
X7465301Y-14546008D02*
X7484348Y-14536484D01*
X7731967Y-14536484D02*
X7636729Y-14536484D01*
X7636729Y-14536484D02*
X7627206Y-14631722D01*
X7627206Y-14631722D02*
X7636729Y-14622198D01*
X7636729Y-14622198D02*
X7655777Y-14612674D01*
X7655777Y-14612674D02*
X7703396Y-14612674D01*
X7703396Y-14612674D02*
X7722444Y-14622198D01*
X7722444Y-14622198D02*
X7731967Y-14631722D01*
X7731967Y-14631722D02*
X7741491Y-14650769D01*
X7741491Y-14650769D02*
X7741491Y-14698388D01*
X7741491Y-14698388D02*
X7731967Y-14717436D01*
X7731967Y-14717436D02*
X7722444Y-14726960D01*
X7722444Y-14726960D02*
X7703396Y-14736484D01*
X7703396Y-14736484D02*
X7655777Y-14736484D01*
X7655777Y-14736484D02*
X7636729Y-14726960D01*
X7636729Y-14726960D02*
X7627206Y-14717436D01*
X7931967Y-14736484D02*
X7817682Y-14736484D01*
X7874825Y-14736484D02*
X7874825Y-14536484D01*
X7874825Y-14536484D02*
X7855777Y-14565055D01*
X7855777Y-14565055D02*
X7836729Y-14584103D01*
X7836729Y-14584103D02*
X7817682Y-14593627D01*
X8008158Y-14555531D02*
X8017682Y-14546008D01*
X8017682Y-14546008D02*
X8036729Y-14536484D01*
X8036729Y-14536484D02*
X8084348Y-14536484D01*
X8084348Y-14536484D02*
X8103396Y-14546008D01*
X8103396Y-14546008D02*
X8112920Y-14555531D01*
X8112920Y-14555531D02*
X8122444Y-14574579D01*
X8122444Y-14574579D02*
X8122444Y-14593627D01*
X8122444Y-14593627D02*
X8112920Y-14622198D01*
X8112920Y-14622198D02*
X7998634Y-14736484D01*
X7998634Y-14736484D02*
X8122444Y-14736484D01*
X8198634Y-14536484D02*
X8198634Y-14574579D01*
X8274825Y-14536484D02*
X8274825Y-14574579D01*
X8570063Y-14812674D02*
X8560539Y-14803150D01*
X8560539Y-14803150D02*
X8541491Y-14774579D01*
X8541491Y-14774579D02*
X8531968Y-14755531D01*
X8531968Y-14755531D02*
X8522444Y-14726960D01*
X8522444Y-14726960D02*
X8512920Y-14679341D01*
X8512920Y-14679341D02*
X8512920Y-14641246D01*
X8512920Y-14641246D02*
X8522444Y-14593627D01*
X8522444Y-14593627D02*
X8531968Y-14565055D01*
X8531968Y-14565055D02*
X8541491Y-14546008D01*
X8541491Y-14546008D02*
X8560539Y-14517436D01*
X8560539Y-14517436D02*
X8570063Y-14507912D01*
X8731968Y-14536484D02*
X8693872Y-14536484D01*
X8693872Y-14536484D02*
X8674825Y-14546008D01*
X8674825Y-14546008D02*
X8665301Y-14555531D01*
X8665301Y-14555531D02*
X8646253Y-14584103D01*
X8646253Y-14584103D02*
X8636730Y-14622198D01*
X8636730Y-14622198D02*
X8636730Y-14698388D01*
X8636730Y-14698388D02*
X8646253Y-14717436D01*
X8646253Y-14717436D02*
X8655777Y-14726960D01*
X8655777Y-14726960D02*
X8674825Y-14736484D01*
X8674825Y-14736484D02*
X8712920Y-14736484D01*
X8712920Y-14736484D02*
X8731968Y-14726960D01*
X8731968Y-14726960D02*
X8741491Y-14717436D01*
X8741491Y-14717436D02*
X8751015Y-14698388D01*
X8751015Y-14698388D02*
X8751015Y-14650769D01*
X8751015Y-14650769D02*
X8741491Y-14631722D01*
X8741491Y-14631722D02*
X8731968Y-14622198D01*
X8731968Y-14622198D02*
X8712920Y-14612674D01*
X8712920Y-14612674D02*
X8674825Y-14612674D01*
X8674825Y-14612674D02*
X8655777Y-14622198D01*
X8655777Y-14622198D02*
X8646253Y-14631722D01*
X8646253Y-14631722D02*
X8636730Y-14650769D01*
X8989111Y-14736484D02*
X8989111Y-14536484D01*
X9074825Y-14736484D02*
X9074825Y-14631722D01*
X9074825Y-14631722D02*
X9065301Y-14612674D01*
X9065301Y-14612674D02*
X9046253Y-14603150D01*
X9046253Y-14603150D02*
X9017682Y-14603150D01*
X9017682Y-14603150D02*
X8998634Y-14612674D01*
X8998634Y-14612674D02*
X8989111Y-14622198D01*
X9198634Y-14736484D02*
X9179587Y-14726960D01*
X9179587Y-14726960D02*
X9170063Y-14717436D01*
X9170063Y-14717436D02*
X9160539Y-14698388D01*
X9160539Y-14698388D02*
X9160539Y-14641246D01*
X9160539Y-14641246D02*
X9170063Y-14622198D01*
X9170063Y-14622198D02*
X9179587Y-14612674D01*
X9179587Y-14612674D02*
X9198634Y-14603150D01*
X9198634Y-14603150D02*
X9227206Y-14603150D01*
X9227206Y-14603150D02*
X9246253Y-14612674D01*
X9246253Y-14612674D02*
X9255777Y-14622198D01*
X9255777Y-14622198D02*
X9265301Y-14641246D01*
X9265301Y-14641246D02*
X9265301Y-14698388D01*
X9265301Y-14698388D02*
X9255777Y-14717436D01*
X9255777Y-14717436D02*
X9246253Y-14726960D01*
X9246253Y-14726960D02*
X9227206Y-14736484D01*
X9227206Y-14736484D02*
X9198634Y-14736484D01*
X9379587Y-14736484D02*
X9360539Y-14726960D01*
X9360539Y-14726960D02*
X9351015Y-14707912D01*
X9351015Y-14707912D02*
X9351015Y-14536484D01*
X9531968Y-14726960D02*
X9512920Y-14736484D01*
X9512920Y-14736484D02*
X9474825Y-14736484D01*
X9474825Y-14736484D02*
X9455777Y-14726960D01*
X9455777Y-14726960D02*
X9446253Y-14707912D01*
X9446253Y-14707912D02*
X9446253Y-14631722D01*
X9446253Y-14631722D02*
X9455777Y-14612674D01*
X9455777Y-14612674D02*
X9474825Y-14603150D01*
X9474825Y-14603150D02*
X9512920Y-14603150D01*
X9512920Y-14603150D02*
X9531968Y-14612674D01*
X9531968Y-14612674D02*
X9541492Y-14631722D01*
X9541492Y-14631722D02*
X9541492Y-14650769D01*
X9541492Y-14650769D02*
X9446253Y-14669817D01*
X9617682Y-14726960D02*
X9636730Y-14736484D01*
X9636730Y-14736484D02*
X9674825Y-14736484D01*
X9674825Y-14736484D02*
X9693873Y-14726960D01*
X9693873Y-14726960D02*
X9703396Y-14707912D01*
X9703396Y-14707912D02*
X9703396Y-14698388D01*
X9703396Y-14698388D02*
X9693873Y-14679341D01*
X9693873Y-14679341D02*
X9674825Y-14669817D01*
X9674825Y-14669817D02*
X9646253Y-14669817D01*
X9646253Y-14669817D02*
X9627206Y-14660293D01*
X9627206Y-14660293D02*
X9617682Y-14641246D01*
X9617682Y-14641246D02*
X9617682Y-14631722D01*
X9617682Y-14631722D02*
X9627206Y-14612674D01*
X9627206Y-14612674D02*
X9646253Y-14603150D01*
X9646253Y-14603150D02*
X9674825Y-14603150D01*
X9674825Y-14603150D02*
X9693873Y-14612674D01*
X9770063Y-14812674D02*
X9779587Y-14803150D01*
X9779587Y-14803150D02*
X9798634Y-14774579D01*
X9798634Y-14774579D02*
X9808158Y-14755531D01*
X9808158Y-14755531D02*
X9817682Y-14726960D01*
X9817682Y-14726960D02*
X9827206Y-14679341D01*
X9827206Y-14679341D02*
X9827206Y-14641246D01*
X9827206Y-14641246D02*
X9817682Y-14593627D01*
X9817682Y-14593627D02*
X9808158Y-14565055D01*
X9808158Y-14565055D02*
X9798634Y-14546008D01*
X9798634Y-14546008D02*
X9779587Y-14517436D01*
X9779587Y-14517436D02*
X9770063Y-14507912D01*
X10131968Y-14812674D02*
X10122444Y-14803150D01*
X10122444Y-14803150D02*
X10103396Y-14774579D01*
X10103396Y-14774579D02*
X10093873Y-14755531D01*
X10093873Y-14755531D02*
X10084349Y-14726960D01*
X10084349Y-14726960D02*
X10074825Y-14679341D01*
X10074825Y-14679341D02*
X10074825Y-14641246D01*
X10074825Y-14641246D02*
X10084349Y-14593627D01*
X10084349Y-14593627D02*
X10093873Y-14565055D01*
X10093873Y-14565055D02*
X10103396Y-14546008D01*
X10103396Y-14546008D02*
X10122444Y-14517436D01*
X10122444Y-14517436D02*
X10131968Y-14507912D01*
X10208158Y-14603150D02*
X10208158Y-14736484D01*
X10208158Y-14622198D02*
X10217682Y-14612674D01*
X10217682Y-14612674D02*
X10236730Y-14603150D01*
X10236730Y-14603150D02*
X10265301Y-14603150D01*
X10265301Y-14603150D02*
X10284349Y-14612674D01*
X10284349Y-14612674D02*
X10293873Y-14631722D01*
X10293873Y-14631722D02*
X10293873Y-14736484D01*
X10417682Y-14736484D02*
X10398634Y-14726960D01*
X10398634Y-14726960D02*
X10389111Y-14717436D01*
X10389111Y-14717436D02*
X10379587Y-14698388D01*
X10379587Y-14698388D02*
X10379587Y-14641246D01*
X10379587Y-14641246D02*
X10389111Y-14622198D01*
X10389111Y-14622198D02*
X10398634Y-14612674D01*
X10398634Y-14612674D02*
X10417682Y-14603150D01*
X10417682Y-14603150D02*
X10446254Y-14603150D01*
X10446254Y-14603150D02*
X10465301Y-14612674D01*
X10465301Y-14612674D02*
X10474825Y-14622198D01*
X10474825Y-14622198D02*
X10484349Y-14641246D01*
X10484349Y-14641246D02*
X10484349Y-14698388D01*
X10484349Y-14698388D02*
X10474825Y-14717436D01*
X10474825Y-14717436D02*
X10465301Y-14726960D01*
X10465301Y-14726960D02*
X10446254Y-14736484D01*
X10446254Y-14736484D02*
X10417682Y-14736484D01*
X10541492Y-14603150D02*
X10617682Y-14603150D01*
X10570063Y-14536484D02*
X10570063Y-14707912D01*
X10570063Y-14707912D02*
X10579587Y-14726960D01*
X10579587Y-14726960D02*
X10598634Y-14736484D01*
X10598634Y-14736484D02*
X10617682Y-14736484D01*
X10836730Y-14603150D02*
X10836730Y-14803150D01*
X10836730Y-14612674D02*
X10855777Y-14603150D01*
X10855777Y-14603150D02*
X10893873Y-14603150D01*
X10893873Y-14603150D02*
X10912920Y-14612674D01*
X10912920Y-14612674D02*
X10922444Y-14622198D01*
X10922444Y-14622198D02*
X10931968Y-14641246D01*
X10931968Y-14641246D02*
X10931968Y-14698388D01*
X10931968Y-14698388D02*
X10922444Y-14717436D01*
X10922444Y-14717436D02*
X10912920Y-14726960D01*
X10912920Y-14726960D02*
X10893873Y-14736484D01*
X10893873Y-14736484D02*
X10855777Y-14736484D01*
X10855777Y-14736484D02*
X10836730Y-14726960D01*
X11046254Y-14736484D02*
X11027206Y-14726960D01*
X11027206Y-14726960D02*
X11017682Y-14707912D01*
X11017682Y-14707912D02*
X11017682Y-14536484D01*
X11208158Y-14736484D02*
X11208158Y-14631722D01*
X11208158Y-14631722D02*
X11198634Y-14612674D01*
X11198634Y-14612674D02*
X11179587Y-14603150D01*
X11179587Y-14603150D02*
X11141492Y-14603150D01*
X11141492Y-14603150D02*
X11122444Y-14612674D01*
X11208158Y-14726960D02*
X11189111Y-14736484D01*
X11189111Y-14736484D02*
X11141492Y-14736484D01*
X11141492Y-14736484D02*
X11122444Y-14726960D01*
X11122444Y-14726960D02*
X11112920Y-14707912D01*
X11112920Y-14707912D02*
X11112920Y-14688865D01*
X11112920Y-14688865D02*
X11122444Y-14669817D01*
X11122444Y-14669817D02*
X11141492Y-14660293D01*
X11141492Y-14660293D02*
X11189111Y-14660293D01*
X11189111Y-14660293D02*
X11208158Y-14650769D01*
X11274825Y-14603150D02*
X11351015Y-14603150D01*
X11303396Y-14536484D02*
X11303396Y-14707912D01*
X11303396Y-14707912D02*
X11312920Y-14726960D01*
X11312920Y-14726960D02*
X11331968Y-14736484D01*
X11331968Y-14736484D02*
X11351015Y-14736484D01*
X11493873Y-14726960D02*
X11474825Y-14736484D01*
X11474825Y-14736484D02*
X11436730Y-14736484D01*
X11436730Y-14736484D02*
X11417682Y-14726960D01*
X11417682Y-14726960D02*
X11408158Y-14707912D01*
X11408158Y-14707912D02*
X11408158Y-14631722D01*
X11408158Y-14631722D02*
X11417682Y-14612674D01*
X11417682Y-14612674D02*
X11436730Y-14603150D01*
X11436730Y-14603150D02*
X11474825Y-14603150D01*
X11474825Y-14603150D02*
X11493873Y-14612674D01*
X11493873Y-14612674D02*
X11503396Y-14631722D01*
X11503396Y-14631722D02*
X11503396Y-14650769D01*
X11503396Y-14650769D02*
X11408158Y-14669817D01*
X11674825Y-14736484D02*
X11674825Y-14536484D01*
X11674825Y-14726960D02*
X11655777Y-14736484D01*
X11655777Y-14736484D02*
X11617682Y-14736484D01*
X11617682Y-14736484D02*
X11598634Y-14726960D01*
X11598634Y-14726960D02*
X11589111Y-14717436D01*
X11589111Y-14717436D02*
X11579587Y-14698388D01*
X11579587Y-14698388D02*
X11579587Y-14641246D01*
X11579587Y-14641246D02*
X11589111Y-14622198D01*
X11589111Y-14622198D02*
X11598634Y-14612674D01*
X11598634Y-14612674D02*
X11617682Y-14603150D01*
X11617682Y-14603150D02*
X11655777Y-14603150D01*
X11655777Y-14603150D02*
X11674825Y-14612674D01*
X11751015Y-14812674D02*
X11760539Y-14803150D01*
X11760539Y-14803150D02*
X11779587Y-14774579D01*
X11779587Y-14774579D02*
X11789111Y-14755531D01*
X11789111Y-14755531D02*
X11798634Y-14726960D01*
X11798634Y-14726960D02*
X11808158Y-14679341D01*
X11808158Y-14679341D02*
X11808158Y-14641246D01*
X11808158Y-14641246D02*
X11798634Y-14593627D01*
X11798634Y-14593627D02*
X11789111Y-14565055D01*
X11789111Y-14565055D02*
X11779587Y-14546008D01*
X11779587Y-14546008D02*
X11760539Y-14517436D01*
X11760539Y-14517436D02*
X11751015Y-14507912D01*
M02*
