M48
; DRILL file {KiCad 8.0.2-8.0.2-0~ubuntu22.04.1} date 2024-05-24T18:10:15-0700
; FORMAT={-:-/ absolute / inch / decimal}
; #@! TF.CreationDate,2024-05-24T18:10:15-07:00
; #@! TF.GenerationSoftware,Kicad,Pcbnew,8.0.2-8.0.2-0~ubuntu22.04.1
; #@! TF.FileFunction,Plated,1,2,PTH
FMAT,2
INCH
; #@! TA.AperFunction,Plated,PTH,ViaDrill
T1C0.0157
; #@! TA.AperFunction,Plated,PTH,ComponentDrill
T2C0.0197
; #@! TA.AperFunction,Plated,PTH,ComponentDrill
T3C0.0276
; #@! TA.AperFunction,Plated,PTH,ComponentDrill
T4C0.0295
; #@! TA.AperFunction,Plated,PTH,ComponentDrill
T5C0.0315
; #@! TA.AperFunction,Plated,PTH,ComponentDrill
T6C0.0320
; #@! TA.AperFunction,Plated,PTH,ComponentDrill
T7C0.0354
; #@! TA.AperFunction,Plated,PTH,ComponentDrill
T8C0.0362
; #@! TA.AperFunction,Plated,PTH,ComponentDrill
T9C0.0394
; #@! TA.AperFunction,Plated,PTH,ComponentDrill
T10C0.0433
; #@! TA.AperFunction,Plated,PTH,ComponentDrill
T11C0.0512
; #@! TA.AperFunction,Plated,PTH,ComponentDrill
T12C0.0709
; #@! TA.AperFunction,Plated,PTH,ComponentDrill
T13C0.0866
; #@! TA.AperFunction,Plated,PTH,ComponentDrill
T14C0.1260
%
G90
G05
T1
X3.3504Y-2.0157
X3.374Y-3.4724
X3.6378Y-2.0157
X3.8714Y-3.4659
X3.9124Y-3.878
X4.6261Y-1.3188
X4.8189Y-1.3504
T2
X2.0709Y-0.9843
X2.0709Y-5.315
X2.0985Y-0.9174
X2.0985Y-1.0511
X2.0985Y-5.2481
X2.0985Y-5.3818
X2.1654Y-0.8898
X2.1654Y-1.0787
X2.1654Y-5.2205
X2.1654Y-5.4094
X2.2322Y-0.9174
X2.2322Y-1.0511
X2.2322Y-5.2481
X2.2322Y-5.3818
X2.2598Y-0.9843
X2.2598Y-5.315
X5.6142Y-0.9843
X5.6142Y-5.315
X5.6418Y-0.9174
X5.6418Y-1.0511
X5.6418Y-5.2481
X5.6418Y-5.3818
X5.7087Y-0.8898
X5.7087Y-1.0787
X5.7087Y-5.2205
X5.7087Y-5.4094
X5.7755Y-0.9174
X5.7755Y-1.0511
X5.7755Y-5.2481
X5.7755Y-5.3818
X5.8031Y-0.9843
X5.8031Y-5.315
T3
X2.7638Y-2.9134
X2.7638Y-3.1969
X3.1378Y-2.9961
X3.1378Y-3.1142
X4.2874Y-2.5039
X4.2874Y-2.5827
X4.3661Y-2.3858
X4.3661Y-2.4646
X4.7323Y-3.9094
X4.7323Y-3.9882
X4.7323Y-4.0669
X4.811Y-3.752
X4.811Y-3.8307
X4.811Y-3.9094
X5.0Y-3.5098
X5.0827Y-3.1358
X5.2008Y-3.1358
X5.2835Y-3.5098
X5.6339Y-3.9094
X5.6339Y-3.9882
X5.6339Y-4.0669
X5.7126Y-3.752
X5.7126Y-3.8307
X5.7126Y-3.9094
T4
X2.1913Y-4.0315
X2.2413Y-4.0315
X2.2913Y-4.0315
X2.3307Y-4.6969
X2.3807Y-4.6969
X2.4307Y-4.6969
X2.6756Y-3.6929
X2.7256Y-3.6929
X2.7756Y-3.6929
X2.9016Y-4.0315
X2.9516Y-4.0315
X2.9933Y-4.5551
X3.0016Y-4.0315
X3.0433Y-4.5551
X3.0933Y-4.5551
X3.1598Y-2.0157
X3.2098Y-2.0157
X3.2598Y-2.0157
X3.3476Y-4.5551
X3.3858Y-3.7677
X3.3858Y-3.8177
X3.3858Y-3.8677
X3.3976Y-4.5551
X3.4453Y-2.0157
X3.4476Y-4.5551
X3.4953Y-2.0157
X3.5453Y-2.0157
X3.563Y-2.5394
X3.613Y-2.5394
X3.663Y-2.5394
X3.7307Y-2.0157
X3.7807Y-2.0157
X3.8268Y-4.4984
X3.8268Y-4.5484
X3.8268Y-4.5984
X3.8307Y-2.0157
X4.152Y-4.1378
X4.202Y-4.1378
X4.252Y-4.1378
X4.4512Y-4.698
X4.4512Y-4.748
X4.4512Y-4.798
X4.6417Y-2.6789
X4.6917Y-2.6789
X4.7417Y-2.6789
X4.8921Y-1.4882
X4.9421Y-1.4882
X4.9449Y-4.7008
X4.9449Y-4.7508
X4.9449Y-4.8008
X4.9921Y-1.4882
X5.252Y-2.4561
X5.302Y-2.4561
X5.3516Y-4.5575
X5.352Y-2.4561
X5.4016Y-4.5575
X5.4516Y-4.5575
X5.6378Y-1.7756
X5.6878Y-1.7756
X5.7378Y-1.7756
T5
X2.0693Y-4.6969
X2.0827Y-4.2283
X2.0827Y-4.9173
X2.0866Y-4.4606
X2.1028Y-3.711
X2.1028Y-3.811
X2.1378Y-3.1535
X2.1386Y-2.9882
X2.1654Y-4.4606
X2.1693Y-4.6969
X2.1804Y-3.4094
X2.1827Y-4.2283
X2.1898Y-1.6424
X2.1898Y-1.8714
X2.1898Y-2.0138
X2.1898Y-2.2428
X2.1898Y-2.3852
X2.1898Y-2.6142
X2.1898Y-2.8031
X2.2016Y-1.5
X2.2398Y-3.6457
X2.2437Y-3.811
X2.2788Y-3.4094
X2.2795Y-4.9173
X2.3386Y-4.4646
X2.3866Y-1.729
X2.3866Y-1.8714
X2.3866Y-2.1004
X2.3866Y-2.2428
X2.3866Y-2.4718
X2.3866Y-2.6142
X2.3866Y-2.8031
X2.3984Y-1.5
X2.4331Y-4.9173
X2.4378Y-3.1535
X2.4386Y-2.9882
X2.4386Y-4.4646
X2.4392Y-4.0197
X2.4591Y-3.4094
X2.5159Y-5.1614
X2.5392Y-4.0197
X2.5398Y-3.6457
X2.5437Y-3.811
X2.5551Y-4.2677
X2.5551Y-4.4646
X2.5591Y-3.1545
X2.5591Y-3.4094
X2.5654Y-4.6969
X2.6159Y-5.1614
X2.6299Y-4.9173
X2.6457Y-2.9577
X2.6654Y-4.0197
X2.6654Y-4.6969
X2.7165Y-3.4094
X2.7323Y-1.7165
X2.7323Y-1.8976
X2.7323Y-2.626
X2.752Y-4.2677
X2.752Y-4.4646
X2.7654Y-4.0197
X2.7953Y-4.9173
X2.8165Y-3.4094
X2.8346Y-4.6969
X2.8346Y-4.7969
X2.9291Y-1.7165
X2.9291Y-1.8976
X2.9291Y-2.626
X2.9354Y-3.7598
X2.937Y-4.3071
X2.9921Y-4.9173
X3.0118Y-3.4724
X3.0354Y-3.7598
X3.0354Y-4.3071
X3.063Y-2.7677
X3.1102Y-3.4724
X3.1693Y-4.7559
X3.1693Y-4.9528
X3.1811Y-3.7598
X3.1811Y-3.9567
X3.1929Y-2.4394
X3.1929Y-2.5394
X3.2441Y-3.065
X3.2441Y-3.2618
X3.252Y-1.7165
X3.2598Y-2.7677
X3.2835Y-4.311
X3.3386Y-1.0866
X3.3386Y-1.2835
X3.3386Y-1.5197
X3.3465Y-4.0669
X3.3661Y-4.8339
X3.3661Y-5.1339
X3.374Y-2.4394
X3.374Y-2.5394
X3.3803Y-2.7677
X3.3819Y-4.311
X3.4156Y-5.3504
X3.4465Y-4.0669
X3.4469Y-3.0669
X3.4469Y-3.2591
X3.4803Y-2.7677
X3.5156Y-5.3504
X3.5157Y-5.1063
X3.5197Y-2.3071
X3.5297Y-4.2756
X3.5551Y-1.7165
X3.6126Y-2.7677
X3.6142Y-5.1063
X3.6297Y-4.2756
X3.6417Y-1.5197
X3.6496Y-3.065
X3.6496Y-3.2618
X3.6575Y-3.6575
X3.6614Y-3.9409
X3.6929Y-4.8094
X3.6929Y-4.9094
X3.7126Y-2.7677
X3.7165Y-2.3071
X3.7575Y-3.6575
X3.7598Y-3.9409
X3.7992Y-4.2323
X3.7992Y-4.3323
X3.8504Y-2.5669
X3.8524Y-3.0677
X3.8524Y-3.2598
X3.8543Y-4.8386
X3.9134Y-2.374
X3.9134Y-2.7677
X3.9504Y-2.5669
X3.9528Y-4.8386
X3.9882Y-3.7031
X3.9882Y-3.8031
X3.9882Y-3.9906
X3.9882Y-4.0906
X3.9906Y-3.5236
X3.9921Y-4.3307
X4.0157Y-1.9724
X4.0157Y-2.1575
X4.0354Y-1.5593
X4.0354Y-1.6593
X4.0551Y-3.065
X4.0551Y-3.2618
X4.0906Y-3.5236
X4.0921Y-4.3307
X4.1102Y-2.374
X4.1102Y-2.7677
X4.1102Y-5.2228
X4.1102Y-5.3228
X4.1157Y-1.9724
X4.1157Y-2.1575
X4.122Y-4.9882
X4.1459Y-4.7992
X4.1535Y-4.5
X4.1614Y-1.4996
X4.1614Y-1.7996
X4.2008Y-3.8031
X4.2362Y-3.5236
X4.2459Y-4.7992
X4.2465Y-1.9724
X4.252Y-4.5
X4.2579Y-3.0669
X4.2579Y-3.2591
X4.2638Y-2.1614
X4.2992Y-3.8031
X4.3071Y-5.1772
X4.3071Y-5.374
X4.3189Y-1.4992
X4.3189Y-1.7992
X4.3189Y-4.9882
X4.3465Y-1.9724
X4.3638Y-2.1614
X4.3882Y-4.4803
X4.4039Y-4.2402
X4.4331Y-3.5236
X4.4591Y-4.9882
X4.4606Y-3.065
X4.4606Y-3.2618
X4.4764Y-5.1772
X4.4764Y-5.374
X4.4882Y-4.4803
X4.4921Y-4.0039
X4.5039Y-4.2402
X4.5276Y-1.9646
X4.5276Y-2.1614
X4.5276Y-2.3348
X4.5276Y-2.4348
X4.5591Y-4.9882
X4.5787Y-3.8071
X4.6496Y-4.7205
X4.6634Y-3.0677
X4.6634Y-3.2598
X4.6772Y-1.7344
X4.6772Y-1.8344
X4.6772Y-4.3268
X4.6953Y-4.9882
X4.7047Y-2.3506
X4.7047Y-2.4506
X4.715Y-2.0157
X4.748Y-4.7205
X4.7756Y-4.3268
X4.7953Y-4.9882
X4.815Y-2.0157
X4.8504Y-1.6969
X4.8661Y-3.065
X4.8661Y-3.2618
X4.8858Y-2.3325
X4.8858Y-2.4325
X4.8858Y-2.612
X4.8858Y-2.8089
X4.9313Y-2.0157
X4.937Y-4.5197
X4.9491Y-3.8462
X4.9493Y-3.9768
X4.9512Y-4.3268
X4.9628Y-4.9882
X5.0079Y-2.9803
X5.0313Y-2.0157
X5.037Y-4.5197
X5.0472Y-1.6969
X5.0472Y-2.7087
X5.0472Y-2.8087
X5.0512Y-4.3268
X5.0628Y-4.9882
X5.0709Y-2.2947
X5.0709Y-2.4915
X5.1575Y-4.811
X5.1612Y-3.6341
X5.1614Y-4.189
X5.1756Y-1.6772
X5.185Y-4.463
X5.185Y-4.563
X5.1929Y-1.9354
X5.1929Y-2.0354
X5.1953Y-1.4882
X5.2047Y-2.6671
X5.2047Y-2.9803
X5.2165Y-2.2104
X5.2559Y-4.811
X5.2677Y-5.1811
X5.2677Y-5.378
X5.2756Y-1.6772
X5.2913Y-3.6339
X5.2918Y-4.1885
X5.2945Y-1.311
X5.2953Y-1.4882
X5.3331Y-4.9961
X5.3488Y-2.8543
X5.3488Y-3.0394
X5.3583Y-4.3268
X5.3764Y-4.7598
X5.4016Y-2.6671
X5.4016Y-3.2283
X5.4134Y-2.2104
X5.4283Y-1.4921
X5.4331Y-4.9961
X5.4331Y-5.1811
X5.4331Y-5.378
X5.4409Y-1.6677
X5.4409Y-1.7677
X5.4409Y-2.0118
X5.4488Y-2.8543
X5.4488Y-3.0394
X5.4583Y-4.3268
X5.4764Y-4.7598
X5.5016Y-3.2283
X5.5035Y-3.846
X5.5039Y-3.9764
X5.5394Y-2.0118
X5.5811Y-4.9961
X5.5945Y-1.311
X5.6063Y-2.9961
X5.6283Y-4.5906
X5.6339Y-2.3
X5.6339Y-2.4921
X5.6339Y-4.3268
X5.6811Y-4.9961
X5.6929Y-2.7992
X5.7283Y-1.4921
X5.7283Y-4.5906
X5.7323Y-4.3268
T6
X2.7717Y-2.374
X2.8819Y-2.1772
T7
X3.8041Y-5.1112
X3.9041Y-5.1112
T8
X2.9528Y-1.2835
T9
X2.3543Y-4.2323
X2.5118Y-1.2835
X2.5748Y-2.6575
X3.8701Y-1.7205
X4.0118Y-4.5551
X4.1102Y-2.5669
X4.4173Y-1.2008
X4.4843Y-1.5039
X4.4843Y-1.7323
X4.6811Y-3.5236
X4.7795Y-5.3346
X4.878Y-5.3346
X4.9764Y-5.3346
X5.3661Y-0.9882
X5.4291Y-3.4488
X5.6811Y-4.7638
T10
X3.5709Y-0.915
X3.5709Y-1.315
T11
X2.7874Y-5.1969
X2.9843Y-5.3937
X3.1811Y-5.1969
X4.7559Y-1.1024
X4.9528Y-0.9055
X5.1496Y-1.1024
X5.6126Y-3.5866
X5.7126Y-3.2126
X5.7126Y-3.4094
X5.8126Y-3.5866
T12
X2.8031Y-0.9764
X3.1024Y-0.9764
T13
X4.7165Y-5.2047
X5.0394Y-5.2047
T14
X2.1654Y-0.9843
X2.1654Y-5.315
X5.7087Y-0.9843
X5.7087Y-5.315
T9
X3.752Y-1.252G85X3.752Y-1.1732
G05
X3.9764Y-1.0945G85X3.8976Y-1.0945
G05
X3.9862Y-1.3307G85X3.8878Y-1.3307
G05
M30
